<svg fill="none" xmlns="http://www.w3.org/2000/svg" viewBox="0 0 133 50"><path d="M13.52 36.43c3.936 0 7.147-.837 9.636-2.512 2.49-1.708 3.734-4.254 3.734-7.638 0-1.775-.454-3.35-1.363-4.723-.874-1.373-2.068-2.53-3.582-3.467 2.288-2.01 3.431-4.054 3.431-6.13 0-3.284-1.177-5.712-3.531-7.287-2.321-1.608-5.382-2.412-9.182-2.412H0v34.17h13.52zM12.007 8.594c3.43 0 5.146 1.222 5.146 3.668 0 1.139-.555 1.993-1.665 2.563-1.076.569-2.472.854-4.187.854H7.87V8.593h4.136zm1.564 13.366c1.58 0 2.825.385 3.733 1.156.942.737 1.413 1.775 1.413 3.115 0 1.24-.488 2.211-1.463 2.915-.976.67-2.27 1.005-3.885 1.005H7.87v-8.191h5.7z" fill="url(#paint0_linear)"/><path d="M37.128 21.858a15.402 15.402 0 014.086-2.512c1.547-.67 2.91-1.005 4.087-1.005l-1.564-6.281c-1.245 0-2.64.368-4.188 1.105-1.547.704-2.909 1.508-4.086 2.412l-2.22-3.467h-4.036v24.32h7.92V21.859z" fill="url(#paint1_linear)"/><path d="M101.386 11.256c5.751 0 8.626 3.216 8.626 9.648V36.43h-7.87V21.507c0-1.173-.269-2.094-.807-2.764-.504-.703-1.261-1.055-2.27-1.055-1.413 0-3.33.703-5.751 2.11v16.633h-7.87V1.507l7.87-.552v12.663a23.503 23.503 0 014.036-1.709c1.412-.435 2.758-.653 4.036-.653z" fill="url(#paint2_linear)"/><path d="M124.373 12.613V5.226l-7.87 1.206v6.18h-3.531v6.131h3.531v9.196c0 2.948.992 5.225 2.977 6.834 1.984 1.607 4.523 2.411 7.617 2.411 1.009 0 2.102-.184 3.28-.552 1.177-.369 2.051-.788 2.623-1.256l-2.27-5.478c-1.043.536-2.085.804-3.128.804-1.009 0-1.799-.351-2.371-1.055-.572-.703-.858-1.625-.858-2.764v-8.14h6.861l-1.412-6.13h-5.449z" fill="url(#paint3_linear)"/><path d="M82.327 7.739c-.84.837-1.867 1.256-3.077 1.256-1.177 0-2.203-.419-3.078-1.256-.84-.871-1.26-1.893-1.26-3.066 0-1.206.42-2.227 1.26-3.065.875-.87 1.9-1.306 3.078-1.306 1.21 0 2.236.435 3.077 1.306.875.838 1.312 1.86 1.312 3.065 0 1.173-.437 2.195-1.312 3.066z" fill="url(#paint4_linear)"/><path fill-rule="evenodd" clip-rule="evenodd" d="M53.332 7.437c-.841.837-1.867 1.256-3.078 1.256-1.177 0-2.203-.419-3.077-1.256-.84-.871-1.261-1.893-1.261-3.065 0-1.206.42-2.228 1.26-3.066C48.052.436 49.078 0 50.255 0c1.211 0 2.237.435 3.078 1.306.874.838 1.311 1.86 1.311 3.066 0 1.172-.437 2.194-1.311 3.065z" fill="url(#paint5_linear)"/><path d="M82.327 7.739c-.84.837-1.867 1.256-3.077 1.256-1.177 0-2.203-.419-3.078-1.256-.84-.871-1.26-1.893-1.26-3.066 0-1.206.42-2.227 1.26-3.065.875-.87 1.9-1.306 3.078-1.306 1.21 0 2.236.435 3.077 1.306.875.838 1.312 1.86 1.312 3.065 0 1.173-.437 2.195-1.312 3.066z" fill="url(#paint6_linear)"/><path fill-rule="evenodd" clip-rule="evenodd" d="M53.332 7.437c-.841.837-1.867 1.256-3.078 1.256-1.177 0-2.203-.419-3.077-1.256-.84-.871-1.261-1.893-1.261-3.065 0-1.206.42-2.228 1.26-3.066C48.052.436 49.078 0 50.255 0c1.211 0 2.237.435 3.078 1.306.874.838 1.311 1.86 1.311 3.066 0 1.172-.437 2.194-1.311 3.065z" fill="url(#paint7_linear)"/><path d="M70.421 36.983c1.48 0 2.977-.334 4.49-1.005v-6.683c-1.312.938-2.522 1.407-3.632 1.407-1.615 0-2.876-.57-3.784-1.708-.908-1.173-1.362-2.764-1.362-4.774 0-1.976.454-3.567 1.362-4.773.908-1.206 2.102-1.81 3.582-1.81 1.345 0 2.623.42 3.834 1.257V12.11c-1.177-.469-3.044-.804-4.187-.804-3.935 0-7.046 1.156-9.333 3.467-2.287 2.278-3.43 5.444-3.43 9.497 0 4.054 1.126 7.186 3.38 9.397 2.253 2.211 5.28 3.316 9.08 3.316z" fill="url(#paint8_linear)"/><path d="M82.327 7.739c-.84.837-1.867 1.256-3.077 1.256-1.177 0-2.203-.419-3.078-1.256-.84-.871-1.261-1.893-1.261-3.066 0-1.206.42-2.227 1.261-3.065.875-.87 1.9-1.306 3.078-1.306 1.21 0 2.236.435 3.077 1.306.874.838 1.312 1.86 1.312 3.065 0 1.173-.438 2.195-1.312 3.066z" fill="url(#paint9_linear)"/><path fill-rule="evenodd" clip-rule="evenodd" d="M53.332 7.437c-.841.837-1.867 1.256-3.078 1.256-1.177 0-2.203-.419-3.077-1.256-.84-.871-1.261-1.893-1.261-3.065 0-1.206.42-2.228 1.26-3.066C48.052.436 49.078 0 50.255 0c1.211 0 2.237.435 3.078 1.306.874.838 1.311 1.86 1.311 3.066 0 1.172-.437 2.194-1.311 3.065z" fill="url(#paint10_linear)"/><path d="M82.327 7.739c-.84.837-1.867 1.256-3.077 1.256-1.177 0-2.203-.419-3.078-1.256-.84-.871-1.261-1.893-1.261-3.066 0-1.206.42-2.227 1.261-3.065.875-.87 1.9-1.306 3.078-1.306 1.21 0 2.236.435 3.077 1.306.874.838 1.312 1.86 1.312 3.065 0 1.173-.438 2.195-1.312 3.066z" fill="url(#paint11_linear)"/><path fill-rule="evenodd" clip-rule="evenodd" d="M53.332 7.437c-.841.837-1.867 1.256-3.078 1.256-1.177 0-2.203-.419-3.077-1.256-.84-.871-1.261-1.893-1.261-3.065 0-1.206.42-2.228 1.26-3.066C48.052.436 49.078 0 50.255 0c1.211 0 2.237.435 3.078 1.306.874.838 1.311 1.86 1.311 3.066 0 1.172-.437 2.194-1.311 3.065z" fill="url(#paint12_linear)"/><path d="M54.24 12.06H46.319v25.275c0 2.144.555 4.02 1.665 5.628 6.252 9.34 26.92 9.408 33.183.05 1.11-1.608 1.665-3.483 1.665-5.627V12.11H74.91V35.94c0 10.685-20.671 10.745-20.671-.05V12.06z" fill="url(#paint13_linear)"/><defs><linearGradient id="paint0_linear" x1=".989" y1="23.95" x2="133" y2="23.95" gradientUnits="userSpaceOnUse"><stop stop-color="#FF6B00"/><stop offset="1" stop-color="#FFB74A"/></linearGradient><linearGradient id="paint1_linear" x1=".989" y1="23.95" x2="133" y2="23.95" gradientUnits="userSpaceOnUse"><stop stop-color="#FF6B00"/><stop offset="1" stop-color="#FFB74A"/></linearGradient><linearGradient id="paint2_linear" x1=".989" y1="23.95" x2="133" y2="23.95" gradientUnits="userSpaceOnUse"><stop stop-color="#FF6B00"/><stop offset="1" stop-color="#FFB74A"/></linearGradient><linearGradient id="paint3_linear" x1=".989" y1="23.95" x2="133" y2="23.95" gradientUnits="userSpaceOnUse"><stop stop-color="#FF6B00"/><stop offset="1" stop-color="#FFB74A"/></linearGradient><linearGradient id="paint4_linear" x1=".989" y1="23.95" x2="133" y2="23.95" gradientUnits="userSpaceOnUse"><stop stop-color="#FF6B00"/><stop offset="1" stop-color="#FFB74A"/></linearGradient><linearGradient id="paint5_linear" x1=".989" y1="23.95" x2="133" y2="23.95" gradientUnits="userSpaceOnUse"><stop stop-color="#FF6B00"/><stop offset="1" stop-color="#FFB74A"/></linearGradient><linearGradient id="paint6_linear" x1=".989" y1="23.95" x2="133" y2="23.95" gradientUnits="userSpaceOnUse"><stop stop-color="#FF6B00"/><stop offset="1" stop-color="#FFB74A"/></linearGradient><linearGradient id="paint7_linear" x1=".989" y1="23.95" x2="133" y2="23.95" gradientUnits="userSpaceOnUse"><stop stop-color="#FF6B00"/><stop offset="1" stop-color="#FFB74A"/></linearGradient><linearGradient id="paint8_linear" x1=".989" y1="23.95" x2="133" y2="23.95" gradientUnits="userSpaceOnUse"><stop stop-color="#FF6B00"/><stop offset="1" stop-color="#FFB74A"/></linearGradient><linearGradient id="paint9_linear" x1="64.777" y1="0" x2="64.777" y2="71.746" gradientUnits="userSpaceOnUse"><stop stop-color="#F90"/><stop offset="1" stop-color="#FFF500"/></linearGradient><linearGradient id="paint10_linear" x1="64.777" y1="0" x2="64.777" y2="71.746" gradientUnits="userSpaceOnUse"><stop stop-color="#F90"/><stop offset="1" stop-color="#FFF500"/></linearGradient><linearGradient id="paint11_linear" x1="64.777" y1="0" x2="64.777" y2="71.746" gradientUnits="userSpaceOnUse"><stop stop-color="#F90"/><stop offset="1" stop-color="#FFF500"/></linearGradient><linearGradient id="paint12_linear" x1="64.777" y1="0" x2="64.777" y2="71.746" gradientUnits="userSpaceOnUse"><stop stop-color="#F90"/><stop offset="1" stop-color="#FFF500"/></linearGradient><linearGradient id="paint13_linear" x1="64.777" y1="0" x2="64.777" y2="71.746" gradientUnits="userSpaceOnUse"><stop stop-color="#F90"/><stop offset="1" stop-color="#FFF500"/></linearGradient></defs></svg>